<mxfile host="65bd71144e">
    <diagram id="cOFIXsaESFEOwG7UN1iq" name="Page-1">
        <mxGraphModel dx="2712" dy="517" grid="1" gridSize="10" guides="1" tooltips="1" connect="1" arrows="1" fold="1" page="1" pageScale="1" pageWidth="827" pageHeight="1169" math="0" shadow="0">
            <root>
                <mxCell id="0"/>
                <mxCell id="1" parent="0"/>
                <mxCell id="S4onKymIJfaPcPy270_9-70" value="" style="rounded=0;whiteSpace=wrap;html=1;fillColor=#FFFFFF;" parent="1" vertex="1">
                    <mxGeometry x="460" y="1390" width="390" height="180" as="geometry"/>
                </mxCell>
                <mxCell id="g8ZC8sTTa8iymZE90E4W-40" value="" style="rounded=0;whiteSpace=wrap;html=1;fillColor=#FFFFFF;" parent="1" vertex="1">
                    <mxGeometry x="1010" y="140" width="670" height="1210" as="geometry"/>
                </mxCell>
                <mxCell id="g8ZC8sTTa8iymZE90E4W-38" value="" style="rounded=0;whiteSpace=wrap;html=1;fillColor=#FFFFFF;" parent="1" vertex="1">
                    <mxGeometry x="-890" y="20" width="1020" height="1410" as="geometry"/>
                </mxCell>
                <mxCell id="g8ZC8sTTa8iymZE90E4W-36" value="" style="rounded=0;whiteSpace=wrap;html=1;fillColor=#FFFFFF;" parent="1" vertex="1">
                    <mxGeometry x="170" y="140" width="810" height="1210" as="geometry"/>
                </mxCell>
                <mxCell id="g8ZC8sTTa8iymZE90E4W-1" value="" style="ellipse;whiteSpace=wrap;html=1;aspect=fixed;" parent="1" vertex="1">
                    <mxGeometry x="-260" y="30" width="20" height="20" as="geometry"/>
                </mxCell>
                <mxCell id="S4onKymIJfaPcPy270_9-2" style="edgeStyle=orthogonalEdgeStyle;rounded=0;orthogonalLoop=1;jettySize=auto;html=1;exitX=0.5;exitY=1;exitDx=0;exitDy=0;entryX=0.5;entryY=0;entryDx=0;entryDy=0;" parent="1" source="g8ZC8sTTa8iymZE90E4W-2" target="g8ZC8sTTa8iymZE90E4W-3" edge="1">
                    <mxGeometry relative="1" as="geometry"/>
                </mxCell>
                <mxCell id="g8ZC8sTTa8iymZE90E4W-2" value="&lt;span&gt;read config file&lt;/span&gt;" style="rounded=1;whiteSpace=wrap;html=1;" parent="1" vertex="1">
                    <mxGeometry x="-310" y="80" width="120" height="60" as="geometry"/>
                </mxCell>
                <mxCell id="MSjgwHwJJWcY53IDxr4m-2" style="edgeStyle=orthogonalEdgeStyle;rounded=0;orthogonalLoop=1;jettySize=auto;html=1;exitX=0.5;exitY=1;exitDx=0;exitDy=0;entryX=0.5;entryY=0;entryDx=0;entryDy=0;" parent="1" source="g8ZC8sTTa8iymZE90E4W-3" target="S4onKymIJfaPcPy270_9-118" edge="1">
                    <mxGeometry relative="1" as="geometry"/>
                </mxCell>
                <mxCell id="g8ZC8sTTa8iymZE90E4W-3" value="display helloWorld" style="rounded=1;whiteSpace=wrap;html=1;" parent="1" vertex="1">
                    <mxGeometry x="-310" y="170" width="120" height="60" as="geometry"/>
                </mxCell>
                <mxCell id="MSjgwHwJJWcY53IDxr4m-4" style="edgeStyle=orthogonalEdgeStyle;rounded=0;orthogonalLoop=1;jettySize=auto;html=1;exitX=1;exitY=0.5;exitDx=0;exitDy=0;entryX=0;entryY=0.5;entryDx=0;entryDy=0;" parent="1" source="g8ZC8sTTa8iymZE90E4W-5" target="g8ZC8sTTa8iymZE90E4W-6" edge="1">
                    <mxGeometry relative="1" as="geometry">
                        <Array as="points">
                            <mxPoint x="310" y="430"/>
                            <mxPoint x="310" y="210"/>
                        </Array>
                    </mxGeometry>
                </mxCell>
                <mxCell id="MSjgwHwJJWcY53IDxr4m-5" value="OUI" style="edgeLabel;html=1;align=center;verticalAlign=middle;resizable=0;points=[];" parent="MSjgwHwJJWcY53IDxr4m-4" vertex="1" connectable="0">
                    <mxGeometry x="-0.8929" y="1" relative="1" as="geometry">
                        <mxPoint x="-35" y="-9" as="offset"/>
                    </mxGeometry>
                </mxCell>
                <mxCell id="g8ZC8sTTa8iymZE90E4W-5" value="display Play ?" style="rhombus;whiteSpace=wrap;html=1;" parent="1" vertex="1">
                    <mxGeometry x="-310" y="390" width="120" height="80" as="geometry"/>
                </mxCell>
                <mxCell id="S4onKymIJfaPcPy270_9-7" style="edgeStyle=orthogonalEdgeStyle;rounded=0;orthogonalLoop=1;jettySize=auto;html=1;exitX=0.5;exitY=1;exitDx=0;exitDy=0;entryX=0.5;entryY=0;entryDx=0;entryDy=0;" parent="1" source="g8ZC8sTTa8iymZE90E4W-6" target="g8ZC8sTTa8iymZE90E4W-7" edge="1">
                    <mxGeometry relative="1" as="geometry"/>
                </mxCell>
                <mxCell id="g8ZC8sTTa8iymZE90E4W-6" value="display ${ restant_time }" style="rounded=1;whiteSpace=wrap;html=1;" parent="1" vertex="1">
                    <mxGeometry x="430" y="180" width="180" height="60" as="geometry"/>
                </mxCell>
                <mxCell id="S4onKymIJfaPcPy270_9-29" style="edgeStyle=orthogonalEdgeStyle;rounded=0;orthogonalLoop=1;jettySize=auto;html=1;exitX=1;exitY=0.5;exitDx=0;exitDy=0;entryX=1;entryY=0.5;entryDx=0;entryDy=0;" parent="1" source="g8ZC8sTTa8iymZE90E4W-7" target="g8ZC8sTTa8iymZE90E4W-18" edge="1">
                    <mxGeometry relative="1" as="geometry">
                        <Array as="points">
                            <mxPoint x="950" y="310"/>
                            <mxPoint x="950" y="1199"/>
                        </Array>
                    </mxGeometry>
                </mxCell>
                <mxCell id="g8ZC8sTTa8iymZE90E4W-7" value="is time's up ?" style="rhombus;whiteSpace=wrap;html=1;" parent="1" vertex="1">
                    <mxGeometry x="470" y="270" width="100" height="80" as="geometry"/>
                </mxCell>
                <mxCell id="g8ZC8sTTa8iymZE90E4W-11" value="display &quot;Enter the code&quot; (ligne 2)" style="rounded=0;whiteSpace=wrap;html=1;" parent="1" vertex="1">
                    <mxGeometry x="460" y="480" width="120" height="60" as="geometry"/>
                </mxCell>
                <mxCell id="g8ZC8sTTa8iymZE90E4W-14" value="Affiche $ {kb_Buffer_code}" style="rounded=0;whiteSpace=wrap;html=1;" parent="1" vertex="1">
                    <mxGeometry x="460" y="580" width="120" height="60" as="geometry"/>
                </mxCell>
                <mxCell id="g8ZC8sTTa8iymZE90E4W-23" style="edgeStyle=orthogonalEdgeStyle;rounded=0;orthogonalLoop=1;jettySize=auto;html=1;exitX=1;exitY=0.5;exitDx=0;exitDy=0;entryX=0.5;entryY=0;entryDx=0;entryDy=0;" parent="1" source="g8ZC8sTTa8iymZE90E4W-15" target="g8ZC8sTTa8iymZE90E4W-17" edge="1">
                    <mxGeometry relative="1" as="geometry"/>
                </mxCell>
                <mxCell id="g8ZC8sTTa8iymZE90E4W-24" value="oui" style="edgeLabel;html=1;align=center;verticalAlign=middle;resizable=0;points=[];" parent="g8ZC8sTTa8iymZE90E4W-23" vertex="1" connectable="0">
                    <mxGeometry x="-0.5" y="3" relative="1" as="geometry">
                        <mxPoint x="-75" y="-7" as="offset"/>
                    </mxGeometry>
                </mxCell>
                <mxCell id="g8ZC8sTTa8iymZE90E4W-15" value="is ${ kb_buffer_code } == ${ code }" style="rhombus;whiteSpace=wrap;html=1;" parent="1" vertex="1">
                    <mxGeometry x="460" y="830" width="120" height="80" as="geometry"/>
                </mxCell>
                <mxCell id="g8ZC8sTTa8iymZE90E4W-16" value="add errorCode +1" style="rounded=0;whiteSpace=wrap;html=1;" parent="1" vertex="1">
                    <mxGeometry x="332" y="920" width="120" height="60" as="geometry"/>
                </mxCell>
                <mxCell id="g8ZC8sTTa8iymZE90E4W-35" style="edgeStyle=orthogonalEdgeStyle;rounded=0;orthogonalLoop=1;jettySize=auto;html=1;exitX=0.5;exitY=1;exitDx=0;exitDy=0;endArrow=classic;endFill=1;" parent="1" source="g8ZC8sTTa8iymZE90E4W-17" target="g8ZC8sTTa8iymZE90E4W-34" edge="1">
                    <mxGeometry relative="1" as="geometry"/>
                </mxCell>
                <mxCell id="g8ZC8sTTa8iymZE90E4W-17" value="Well done" style="rounded=0;whiteSpace=wrap;html=1;" parent="1" vertex="1">
                    <mxGeometry x="612" y="990" width="120" height="60" as="geometry"/>
                </mxCell>
                <mxCell id="g8ZC8sTTa8iymZE90E4W-18" value="BOOM" style="rounded=1;whiteSpace=wrap;html=1;" parent="1" vertex="1">
                    <mxGeometry x="270" y="1169" width="244" height="60" as="geometry"/>
                </mxCell>
                <mxCell id="g8ZC8sTTa8iymZE90E4W-27" style="edgeStyle=orthogonalEdgeStyle;rounded=0;orthogonalLoop=1;jettySize=auto;html=1;exitX=0.5;exitY=1;exitDx=0;exitDy=0;entryX=0.5;entryY=0;entryDx=0;entryDy=0;" parent="1" source="g8ZC8sTTa8iymZE90E4W-19" target="g8ZC8sTTa8iymZE90E4W-18" edge="1">
                    <mxGeometry relative="1" as="geometry"/>
                </mxCell>
                <mxCell id="g8ZC8sTTa8iymZE90E4W-19" value="is errorCode &amp;gt;= ${maxtrycode} ?" style="rhombus;whiteSpace=wrap;html=1;" parent="1" vertex="1">
                    <mxGeometry x="316" y="1020" width="150" height="110" as="geometry"/>
                </mxCell>
                <mxCell id="g8ZC8sTTa8iymZE90E4W-21" value="read ${ diminue_time }" style="rounded=1;whiteSpace=wrap;html=1;" parent="1" vertex="1">
                    <mxGeometry x="220" y="630" width="180" height="60" as="geometry"/>
                </mxCell>
                <mxCell id="g8ZC8sTTa8iymZE90E4W-34" value="" style="ellipse;whiteSpace=wrap;html=1;aspect=fixed;fillColor=#000000;" parent="1" vertex="1">
                    <mxGeometry x="657" y="1080" width="30" height="30" as="geometry"/>
                </mxCell>
                <mxCell id="g8ZC8sTTa8iymZE90E4W-37" value="CORE 1 / loop" style="text;html=1;strokeColor=none;fillColor=none;align=center;verticalAlign=middle;whiteSpace=wrap;rounded=0;" parent="1" vertex="1">
                    <mxGeometry x="460" y="140" width="110" height="20" as="geometry"/>
                </mxCell>
                <mxCell id="g8ZC8sTTa8iymZE90E4W-39" value="Setup" style="text;html=1;strokeColor=none;fillColor=none;align=center;verticalAlign=middle;whiteSpace=wrap;rounded=0;" parent="1" vertex="1">
                    <mxGeometry x="-433" y="30" width="40" height="20" as="geometry"/>
                </mxCell>
                <mxCell id="g8ZC8sTTa8iymZE90E4W-41" value="CORE 0" style="text;html=1;strokeColor=none;fillColor=none;align=center;verticalAlign=middle;whiteSpace=wrap;rounded=0;" parent="1" vertex="1">
                    <mxGeometry x="1265" y="140" width="75" height="20" as="geometry"/>
                </mxCell>
                <mxCell id="S4onKymIJfaPcPy270_9-5" value="" style="endArrow=classic;html=1;exitX=0.5;exitY=1;exitDx=0;exitDy=0;" parent="1" source="g8ZC8sTTa8iymZE90E4W-1" target="g8ZC8sTTa8iymZE90E4W-2" edge="1">
                    <mxGeometry width="50" height="50" relative="1" as="geometry">
                        <mxPoint x="140" y="440" as="sourcePoint"/>
                        <mxPoint x="190" y="390" as="targetPoint"/>
                    </mxGeometry>
                </mxCell>
                <mxCell id="S4onKymIJfaPcPy270_9-10" value="" style="endArrow=classic;html=1;exitX=0.5;exitY=1;exitDx=0;exitDy=0;entryX=0.5;entryY=0;entryDx=0;entryDy=0;" parent="1" source="g8ZC8sTTa8iymZE90E4W-11" target="g8ZC8sTTa8iymZE90E4W-14" edge="1">
                    <mxGeometry width="50" height="50" relative="1" as="geometry">
                        <mxPoint x="690" y="440" as="sourcePoint"/>
                        <mxPoint x="740" y="390" as="targetPoint"/>
                    </mxGeometry>
                </mxCell>
                <mxCell id="S4onKymIJfaPcPy270_9-13" value="${restant_time - diminue_time}" style="rounded=1;whiteSpace=wrap;html=1;" parent="1" vertex="1">
                    <mxGeometry x="250" y="520" width="120" height="60" as="geometry"/>
                </mxCell>
                <mxCell id="S4onKymIJfaPcPy270_9-14" value="" style="endArrow=classic;html=1;exitX=0.5;exitY=0;exitDx=0;exitDy=0;entryX=0.5;entryY=1;entryDx=0;entryDy=0;" parent="1" source="g8ZC8sTTa8iymZE90E4W-21" target="S4onKymIJfaPcPy270_9-13" edge="1">
                    <mxGeometry width="50" height="50" relative="1" as="geometry">
                        <mxPoint x="620" y="570" as="sourcePoint"/>
                        <mxPoint x="670" y="520" as="targetPoint"/>
                    </mxGeometry>
                </mxCell>
                <mxCell id="S4onKymIJfaPcPy270_9-15" value="" style="endArrow=none;html=1;exitX=0.5;exitY=0;exitDx=0;exitDy=0;" parent="1" source="S4onKymIJfaPcPy270_9-13" edge="1">
                    <mxGeometry width="50" height="50" relative="1" as="geometry">
                        <mxPoint x="620" y="570" as="sourcePoint"/>
                        <mxPoint x="310" y="430" as="targetPoint"/>
                    </mxGeometry>
                </mxCell>
                <mxCell id="S4onKymIJfaPcPy270_9-18" value="" style="endArrow=classic;html=1;exitX=0.5;exitY=1;exitDx=0;exitDy=0;entryX=0.5;entryY=0;entryDx=0;entryDy=0;" parent="1" source="g8ZC8sTTa8iymZE90E4W-16" target="g8ZC8sTTa8iymZE90E4W-19" edge="1">
                    <mxGeometry width="50" height="50" relative="1" as="geometry">
                        <mxPoint x="612" y="950" as="sourcePoint"/>
                        <mxPoint x="662" y="900" as="targetPoint"/>
                    </mxGeometry>
                </mxCell>
                <mxCell id="S4onKymIJfaPcPy270_9-21" value="" style="endArrow=classic;html=1;entryX=0.5;entryY=0;entryDx=0;entryDy=0;exitX=0;exitY=0.5;exitDx=0;exitDy=0;" parent="1" source="g8ZC8sTTa8iymZE90E4W-15" target="g8ZC8sTTa8iymZE90E4W-16" edge="1">
                    <mxGeometry width="50" height="50" relative="1" as="geometry">
                        <mxPoint x="470" y="780" as="sourcePoint"/>
                        <mxPoint x="670" y="760" as="targetPoint"/>
                        <Array as="points">
                            <mxPoint x="392" y="870"/>
                        </Array>
                    </mxGeometry>
                </mxCell>
                <mxCell id="S4onKymIJfaPcPy270_9-23" value="Read keyboard" style="rounded=1;whiteSpace=wrap;html=1;" parent="1" vertex="1">
                    <mxGeometry x="1070" y="210" width="120" height="60" as="geometry"/>
                </mxCell>
                <mxCell id="S4onKymIJfaPcPy270_9-24" value="Read bornier" style="rounded=1;whiteSpace=wrap;html=1;" parent="1" vertex="1">
                    <mxGeometry x="1520" y="220" width="120" height="60" as="geometry"/>
                </mxCell>
                <mxCell id="S4onKymIJfaPcPy270_9-32" style="edgeStyle=orthogonalEdgeStyle;rounded=0;orthogonalLoop=1;jettySize=auto;html=1;exitX=0;exitY=0.5;exitDx=0;exitDy=0;endArrow=none;endFill=0;" parent="1" source="S4onKymIJfaPcPy270_9-27" edge="1">
                    <mxGeometry relative="1" as="geometry">
                        <mxPoint x="310" y="310" as="targetPoint"/>
                        <Array as="points">
                            <mxPoint x="410" y="730"/>
                            <mxPoint x="410" y="310"/>
                        </Array>
                    </mxGeometry>
                </mxCell>
                <mxCell id="S4onKymIJfaPcPy270_9-89" value="NON" style="edgeLabel;html=1;align=center;verticalAlign=middle;resizable=0;points=[];" parent="S4onKymIJfaPcPy270_9-32" vertex="1" connectable="0">
                    <mxGeometry x="-0.8037" y="1" relative="1" as="geometry">
                        <mxPoint x="33" y="-11" as="offset"/>
                    </mxGeometry>
                </mxCell>
                <mxCell id="S4onKymIJfaPcPy270_9-33" style="edgeStyle=orthogonalEdgeStyle;rounded=0;orthogonalLoop=1;jettySize=auto;html=1;exitX=0.5;exitY=1;exitDx=0;exitDy=0;entryX=0.5;entryY=0;entryDx=0;entryDy=0;" parent="1" source="S4onKymIJfaPcPy270_9-27" target="g8ZC8sTTa8iymZE90E4W-15" edge="1">
                    <mxGeometry relative="1" as="geometry"/>
                </mxCell>
                <mxCell id="S4onKymIJfaPcPy270_9-27" value="is ${ next_kb_step }" style="rhombus;whiteSpace=wrap;html=1;" parent="1" vertex="1">
                    <mxGeometry x="480" y="690" width="80" height="80" as="geometry"/>
                </mxCell>
                <mxCell id="S4onKymIJfaPcPy270_9-30" style="edgeStyle=orthogonalEdgeStyle;rounded=0;orthogonalLoop=1;jettySize=auto;html=1;endArrow=classic;endFill=1;" parent="1" target="S4onKymIJfaPcPy270_9-31" edge="1">
                    <mxGeometry relative="1" as="geometry">
                        <mxPoint x="391" y="1230" as="sourcePoint"/>
                    </mxGeometry>
                </mxCell>
                <mxCell id="S4onKymIJfaPcPy270_9-31" value="" style="ellipse;whiteSpace=wrap;html=1;aspect=fixed;fillColor=#000000;" parent="1" vertex="1">
                    <mxGeometry x="376" y="1300" width="30" height="30" as="geometry"/>
                </mxCell>
                <mxCell id="S4onKymIJfaPcPy270_9-36" value="Oui" style="text;html=1;strokeColor=none;fillColor=none;align=center;verticalAlign=middle;whiteSpace=wrap;rounded=0;" parent="1" vertex="1">
                    <mxGeometry x="514" y="770" width="40" height="20" as="geometry"/>
                </mxCell>
                <mxCell id="S4onKymIJfaPcPy270_9-38" value="" style="endArrow=classic;html=1;exitX=0;exitY=0.5;exitDx=0;exitDy=0;entryX=0.5;entryY=1;entryDx=0;entryDy=0;" parent="1" source="g8ZC8sTTa8iymZE90E4W-19" target="g8ZC8sTTa8iymZE90E4W-21" edge="1">
                    <mxGeometry width="50" height="50" relative="1" as="geometry">
                        <mxPoint x="480" y="910" as="sourcePoint"/>
                        <mxPoint x="530" y="860" as="targetPoint"/>
                        <Array as="points">
                            <mxPoint x="260" y="1075"/>
                            <mxPoint x="260" y="820"/>
                            <mxPoint x="310" y="820"/>
                        </Array>
                    </mxGeometry>
                </mxCell>
                <mxCell id="S4onKymIJfaPcPy270_9-39" value="Non" style="edgeLabel;html=1;align=center;verticalAlign=middle;resizable=0;points=[];" parent="S4onKymIJfaPcPy270_9-38" vertex="1" connectable="0">
                    <mxGeometry x="0.2105" y="1" relative="1" as="geometry">
                        <mxPoint x="51" y="226" as="offset"/>
                    </mxGeometry>
                </mxCell>
                <mxCell id="S4onKymIJfaPcPy270_9-40" value="Oui" style="text;html=1;strokeColor=none;fillColor=none;align=center;verticalAlign=middle;whiteSpace=wrap;rounded=0;" parent="1" vertex="1">
                    <mxGeometry x="390" y="1130" width="40" height="20" as="geometry"/>
                </mxCell>
                <mxCell id="S4onKymIJfaPcPy270_9-41" value="" style="endArrow=classic;html=1;exitX=0.5;exitY=1;exitDx=0;exitDy=0;entryX=0.5;entryY=0;entryDx=0;entryDy=0;" parent="1" source="g8ZC8sTTa8iymZE90E4W-14" target="S4onKymIJfaPcPy270_9-27" edge="1">
                    <mxGeometry width="50" height="50" relative="1" as="geometry">
                        <mxPoint x="480" y="750" as="sourcePoint"/>
                        <mxPoint x="530" y="700" as="targetPoint"/>
                    </mxGeometry>
                </mxCell>
                <mxCell id="S4onKymIJfaPcPy270_9-43" value="is ${ good_wire_cut }" style="rhombus;whiteSpace=wrap;html=1;" parent="1" vertex="1">
                    <mxGeometry x="1505" y="420" width="150" height="80" as="geometry"/>
                </mxCell>
                <mxCell id="S4onKymIJfaPcPy270_9-45" value="is bornier is ok&lt;br&gt;${good_wire_cut}" style="rhombus;whiteSpace=wrap;html=1;" parent="1" vertex="1">
                    <mxGeometry x="430" y="370" width="180" height="80" as="geometry"/>
                </mxCell>
                <mxCell id="S4onKymIJfaPcPy270_9-47" value="info:&lt;br&gt;le bornier a 3 etats:&lt;br&gt;- fil non couper&lt;br&gt;- bon fil couper&lt;br&gt;-mauvais fil couper&lt;br&gt;&lt;br&gt;Dans ce cas la: is ok c'est&lt;br&gt;est ce que tout les fils sont la ?" style="shape=dataStorage;whiteSpace=wrap;html=1;fixedSize=1;fillColor=#f5f5f5;strokeColor=#666666;fontColor=#333333;" parent="1" vertex="1">
                    <mxGeometry x="710" y="320" width="220" height="140" as="geometry"/>
                </mxCell>
                <mxCell id="S4onKymIJfaPcPy270_9-49" value="" style="endArrow=none;dashed=1;html=1;exitX=0;exitY=0.5;exitDx=0;exitDy=0;entryX=1;entryY=0;entryDx=0;entryDy=0;" parent="1" source="S4onKymIJfaPcPy270_9-47" target="S4onKymIJfaPcPy270_9-45" edge="1">
                    <mxGeometry width="50" height="50" relative="1" as="geometry">
                        <mxPoint x="920" y="460" as="sourcePoint"/>
                        <mxPoint x="970" y="410" as="targetPoint"/>
                    </mxGeometry>
                </mxCell>
                <mxCell id="S4onKymIJfaPcPy270_9-50" value="" style="endArrow=classic;html=1;exitX=0.5;exitY=1;exitDx=0;exitDy=0;entryX=0.5;entryY=0;entryDx=0;entryDy=0;" parent="1" source="S4onKymIJfaPcPy270_9-45" target="g8ZC8sTTa8iymZE90E4W-11" edge="1">
                    <mxGeometry width="50" height="50" relative="1" as="geometry">
                        <mxPoint x="920" y="460" as="sourcePoint"/>
                        <mxPoint x="970" y="410" as="targetPoint"/>
                    </mxGeometry>
                </mxCell>
                <mxCell id="S4onKymIJfaPcPy270_9-51" value="oui" style="text;html=1;strokeColor=none;fillColor=none;align=center;verticalAlign=middle;whiteSpace=wrap;rounded=0;" parent="1" vertex="1">
                    <mxGeometry x="514" y="450" width="40" height="20" as="geometry"/>
                </mxCell>
                <mxCell id="S4onKymIJfaPcPy270_9-54" value="&lt;span&gt;is bornier good cable&lt;br&gt;${ wire_good_cable }&lt;br&gt;&lt;/span&gt;" style="rhombus;whiteSpace=wrap;html=1;" parent="1" vertex="1">
                    <mxGeometry x="650" y="530" width="130" height="140" as="geometry"/>
                </mxCell>
                <mxCell id="S4onKymIJfaPcPy270_9-59" value="" style="endArrow=classic;html=1;exitX=0.5;exitY=1;exitDx=0;exitDy=0;entryX=1;entryY=0.5;entryDx=0;entryDy=0;" parent="1" source="S4onKymIJfaPcPy270_9-54" target="g8ZC8sTTa8iymZE90E4W-17" edge="1">
                    <mxGeometry width="50" height="50" relative="1" as="geometry">
                        <mxPoint x="920" y="960" as="sourcePoint"/>
                        <mxPoint x="970" y="910" as="targetPoint"/>
                        <Array as="points">
                            <mxPoint x="715" y="750"/>
                            <mxPoint x="780" y="750"/>
                            <mxPoint x="780" y="1020"/>
                        </Array>
                    </mxGeometry>
                </mxCell>
                <mxCell id="S4onKymIJfaPcPy270_9-61" value="" style="ellipse;whiteSpace=wrap;html=1;aspect=fixed;fillColor=#000000;" parent="1" vertex="1">
                    <mxGeometry x="504" y="1450" width="50" height="50" as="geometry"/>
                </mxCell>
                <mxCell id="S4onKymIJfaPcPy270_9-66" value="" style="endArrow=classic;html=1;exitX=0.5;exitY=1;exitDx=0;exitDy=0;entryX=0.5;entryY=0;entryDx=0;entryDy=0;" parent="1" source="g8ZC8sTTa8iymZE90E4W-7" target="S4onKymIJfaPcPy270_9-45" edge="1">
                    <mxGeometry width="50" height="50" relative="1" as="geometry">
                        <mxPoint x="1100" y="620" as="sourcePoint"/>
                        <mxPoint x="1150" y="570" as="targetPoint"/>
                    </mxGeometry>
                </mxCell>
                <mxCell id="S4onKymIJfaPcPy270_9-94" style="edgeStyle=orthogonalEdgeStyle;rounded=0;orthogonalLoop=1;jettySize=auto;html=1;exitX=0.5;exitY=1;exitDx=0;exitDy=0;entryX=0.5;entryY=0;entryDx=0;entryDy=0;endArrow=none;endFill=0;" parent="1" source="S4onKymIJfaPcPy270_9-67" target="S4onKymIJfaPcPy270_9-88" edge="1">
                    <mxGeometry relative="1" as="geometry"/>
                </mxCell>
                <mxCell id="S4onKymIJfaPcPy270_9-67" value="last char == E" style="rhombus;whiteSpace=wrap;html=1;" parent="1" vertex="1">
                    <mxGeometry x="1080" y="400" width="100" height="80" as="geometry"/>
                </mxCell>
                <mxCell id="S4onKymIJfaPcPy270_9-68" value="ESP.restart();" style="shape=dataStorage;whiteSpace=wrap;html=1;fixedSize=1;fillColor=#f5f5f5;strokeColor=#666666;fontColor=#333333;" parent="1" vertex="1">
                    <mxGeometry x="640" y="1440" width="120" height="70" as="geometry"/>
                </mxCell>
                <mxCell id="S4onKymIJfaPcPy270_9-69" value="" style="endArrow=none;dashed=1;html=1;dashPattern=1 3;strokeWidth=2;exitX=0;exitY=0.5;exitDx=0;exitDy=0;entryX=1;entryY=0.5;entryDx=0;entryDy=0;" parent="1" source="S4onKymIJfaPcPy270_9-68" target="S4onKymIJfaPcPy270_9-61" edge="1">
                    <mxGeometry width="50" height="50" relative="1" as="geometry">
                        <mxPoint x="900" y="1450" as="sourcePoint"/>
                        <mxPoint x="950" y="1400" as="targetPoint"/>
                    </mxGeometry>
                </mxCell>
                <mxCell id="S4onKymIJfaPcPy270_9-71" value="Pour info" style="text;html=1;strokeColor=none;fillColor=none;align=center;verticalAlign=middle;whiteSpace=wrap;rounded=0;" parent="1" vertex="1">
                    <mxGeometry x="617" y="1400" width="40" height="20" as="geometry"/>
                </mxCell>
                <mxCell id="S4onKymIJfaPcPy270_9-93" style="edgeStyle=orthogonalEdgeStyle;rounded=0;orthogonalLoop=1;jettySize=auto;html=1;exitX=0.5;exitY=1;exitDx=0;exitDy=0;entryX=0.5;entryY=0;entryDx=0;entryDy=0;endArrow=none;endFill=0;" parent="1" source="S4onKymIJfaPcPy270_9-72" target="S4onKymIJfaPcPy270_9-67" edge="1">
                    <mxGeometry relative="1" as="geometry"/>
                </mxCell>
                <mxCell id="S4onKymIJfaPcPy270_9-72" value="set ${kb_buffer_code}" style="rounded=1;whiteSpace=wrap;html=1;" parent="1" vertex="1">
                    <mxGeometry x="1040" y="310" width="180" height="60" as="geometry"/>
                </mxCell>
                <mxCell id="S4onKymIJfaPcPy270_9-74" value="&lt;span&gt;set ${ wire_good_cable } == false&lt;/span&gt;" style="rounded=1;whiteSpace=wrap;html=1;" parent="1" vertex="1">
                    <mxGeometry x="1520" y="555" width="120" height="60" as="geometry"/>
                </mxCell>
                <mxCell id="S4onKymIJfaPcPy270_9-75" value="set ${ wire_good_cable == true}" style="rounded=1;whiteSpace=wrap;html=1;" parent="1" vertex="1">
                    <mxGeometry x="1370" y="555" width="120" height="60" as="geometry"/>
                </mxCell>
                <mxCell id="S4onKymIJfaPcPy270_9-76" value="cut 1 wire ?" style="rhombus;whiteSpace=wrap;html=1;" parent="1" vertex="1">
                    <mxGeometry x="1504" y="310" width="150" height="80" as="geometry"/>
                </mxCell>
                <mxCell id="S4onKymIJfaPcPy270_9-77" value="" style="endArrow=classic;html=1;exitX=0;exitY=0.5;exitDx=0;exitDy=0;entryX=0;entryY=0.5;entryDx=0;entryDy=0;" parent="1" source="S4onKymIJfaPcPy270_9-76" target="S4onKymIJfaPcPy270_9-24" edge="1">
                    <mxGeometry width="50" height="50" relative="1" as="geometry">
                        <mxPoint x="990" y="500" as="sourcePoint"/>
                        <mxPoint x="1040" y="450" as="targetPoint"/>
                        <Array as="points">
                            <mxPoint x="1450" y="350"/>
                            <mxPoint x="1450" y="250"/>
                        </Array>
                    </mxGeometry>
                </mxCell>
                <mxCell id="S4onKymIJfaPcPy270_9-78" value="NON" style="edgeLabel;html=1;align=center;verticalAlign=middle;resizable=0;points=[];" parent="S4onKymIJfaPcPy270_9-77" vertex="1" connectable="0">
                    <mxGeometry x="-0.5536" y="-27" relative="1" as="geometry">
                        <mxPoint x="36" y="7" as="offset"/>
                    </mxGeometry>
                </mxCell>
                <mxCell id="S4onKymIJfaPcPy270_9-79" value="" style="endArrow=classic;html=1;exitX=0.5;exitY=1;exitDx=0;exitDy=0;entryX=0.5;entryY=0;entryDx=0;entryDy=0;" parent="1" source="S4onKymIJfaPcPy270_9-24" target="S4onKymIJfaPcPy270_9-76" edge="1">
                    <mxGeometry width="50" height="50" relative="1" as="geometry">
                        <mxPoint x="990" y="500" as="sourcePoint"/>
                        <mxPoint x="1040" y="450" as="targetPoint"/>
                    </mxGeometry>
                </mxCell>
                <mxCell id="S4onKymIJfaPcPy270_9-80" value="" style="endArrow=classic;html=1;exitX=0.5;exitY=1;exitDx=0;exitDy=0;entryX=0.5;entryY=0;entryDx=0;entryDy=0;" parent="1" source="S4onKymIJfaPcPy270_9-76" target="S4onKymIJfaPcPy270_9-43" edge="1">
                    <mxGeometry width="50" height="50" relative="1" as="geometry">
                        <mxPoint x="990" y="500" as="sourcePoint"/>
                        <mxPoint x="1040" y="450" as="targetPoint"/>
                    </mxGeometry>
                </mxCell>
                <mxCell id="S4onKymIJfaPcPy270_9-81" value="" style="endArrow=classic;html=1;exitX=0;exitY=0.5;exitDx=0;exitDy=0;entryX=0.5;entryY=0;entryDx=0;entryDy=0;" parent="1" source="S4onKymIJfaPcPy270_9-43" target="S4onKymIJfaPcPy270_9-75" edge="1">
                    <mxGeometry width="50" height="50" relative="1" as="geometry">
                        <mxPoint x="990" y="500" as="sourcePoint"/>
                        <mxPoint x="1040" y="450" as="targetPoint"/>
                        <Array as="points">
                            <mxPoint x="1430" y="460"/>
                        </Array>
                    </mxGeometry>
                </mxCell>
                <mxCell id="S4onKymIJfaPcPy270_9-83" value="OUI" style="edgeLabel;html=1;align=center;verticalAlign=middle;resizable=0;points=[];" parent="S4onKymIJfaPcPy270_9-81" vertex="1" connectable="0">
                    <mxGeometry x="-0.1412" y="21" relative="1" as="geometry">
                        <mxPoint x="58" y="-31" as="offset"/>
                    </mxGeometry>
                </mxCell>
                <mxCell id="S4onKymIJfaPcPy270_9-82" value="" style="endArrow=classic;html=1;exitX=0.5;exitY=1;exitDx=0;exitDy=0;entryX=0.5;entryY=0;entryDx=0;entryDy=0;" parent="1" source="S4onKymIJfaPcPy270_9-43" target="S4onKymIJfaPcPy270_9-74" edge="1">
                    <mxGeometry width="50" height="50" relative="1" as="geometry">
                        <mxPoint x="990" y="500" as="sourcePoint"/>
                        <mxPoint x="1040" y="450" as="targetPoint"/>
                    </mxGeometry>
                </mxCell>
                <mxCell id="S4onKymIJfaPcPy270_9-96" style="edgeStyle=orthogonalEdgeStyle;rounded=0;orthogonalLoop=1;jettySize=auto;html=1;exitX=0.5;exitY=1;exitDx=0;exitDy=0;entryX=1;entryY=0.5;entryDx=0;entryDy=0;endArrow=none;endFill=0;fillColor=#60a917;strokeColor=#2D7600;" parent="1" source="S4onKymIJfaPcPy270_9-84" target="S4onKymIJfaPcPy270_9-23" edge="1">
                    <mxGeometry relative="1" as="geometry">
                        <Array as="points">
                            <mxPoint x="1130" y="695"/>
                            <mxPoint x="1250" y="695"/>
                            <mxPoint x="1250" y="240"/>
                        </Array>
                    </mxGeometry>
                </mxCell>
                <mxCell id="S4onKymIJfaPcPy270_9-84" value="reset ${kb_buffer_code}" style="rounded=1;whiteSpace=wrap;html=1;" parent="1" vertex="1">
                    <mxGeometry x="1040" y="615" width="180" height="60" as="geometry"/>
                </mxCell>
                <mxCell id="S4onKymIJfaPcPy270_9-85" value="" style="endArrow=classic;html=1;exitX=1;exitY=0.5;exitDx=0;exitDy=0;entryX=0.5;entryY=0;entryDx=0;entryDy=0;" parent="1" source="S4onKymIJfaPcPy270_9-45" target="S4onKymIJfaPcPy270_9-54" edge="1">
                    <mxGeometry width="50" height="50" relative="1" as="geometry">
                        <mxPoint x="990" y="500" as="sourcePoint"/>
                        <mxPoint x="1040" y="450" as="targetPoint"/>
                        <Array as="points">
                            <mxPoint x="715" y="490"/>
                        </Array>
                    </mxGeometry>
                </mxCell>
                <mxCell id="S4onKymIJfaPcPy270_9-86" value="" style="endArrow=none;html=1;exitX=1;exitY=0.5;exitDx=0;exitDy=0;" parent="1" source="S4onKymIJfaPcPy270_9-54" edge="1">
                    <mxGeometry width="50" height="50" relative="1" as="geometry">
                        <mxPoint x="990" y="720" as="sourcePoint"/>
                        <mxPoint x="950" y="600" as="targetPoint"/>
                    </mxGeometry>
                </mxCell>
                <mxCell id="S4onKymIJfaPcPy270_9-87" value="NON" style="edgeLabel;html=1;align=center;verticalAlign=middle;resizable=0;points=[];" parent="S4onKymIJfaPcPy270_9-86" vertex="1" connectable="0">
                    <mxGeometry x="-0.5882" y="2" relative="1" as="geometry">
                        <mxPoint x="-25" y="-8" as="offset"/>
                    </mxGeometry>
                </mxCell>
                <mxCell id="S4onKymIJfaPcPy270_9-95" style="edgeStyle=orthogonalEdgeStyle;rounded=0;orthogonalLoop=1;jettySize=auto;html=1;exitX=0.5;exitY=1;exitDx=0;exitDy=0;entryX=0.5;entryY=0;entryDx=0;entryDy=0;endArrow=none;endFill=0;" parent="1" source="S4onKymIJfaPcPy270_9-88" target="S4onKymIJfaPcPy270_9-84" edge="1">
                    <mxGeometry relative="1" as="geometry"/>
                </mxCell>
                <mxCell id="S4onKymIJfaPcPy270_9-88" value="set ${next_kb_step} == true" style="rounded=1;whiteSpace=wrap;html=1;" parent="1" vertex="1">
                    <mxGeometry x="1040" y="510" width="180" height="60" as="geometry"/>
                </mxCell>
                <mxCell id="S4onKymIJfaPcPy270_9-90" value="" style="endArrow=classic;html=1;exitX=0.5;exitY=1;exitDx=0;exitDy=0;entryX=0.5;entryY=0;entryDx=0;entryDy=0;" parent="1" source="S4onKymIJfaPcPy270_9-23" target="S4onKymIJfaPcPy270_9-72" edge="1">
                    <mxGeometry width="50" height="50" relative="1" as="geometry">
                        <mxPoint x="1050" y="540" as="sourcePoint"/>
                        <mxPoint x="1100" y="490" as="targetPoint"/>
                    </mxGeometry>
                </mxCell>
                <mxCell id="S4onKymIJfaPcPy270_9-91" value="" style="endArrow=classic;html=1;exitX=1;exitY=0.5;exitDx=0;exitDy=0;entryX=1;entryY=0.5;entryDx=0;entryDy=0;fillColor=#60a917;strokeColor=#2D7600;" parent="1" source="S4onKymIJfaPcPy270_9-67" target="S4onKymIJfaPcPy270_9-23" edge="1">
                    <mxGeometry width="50" height="50" relative="1" as="geometry">
                        <mxPoint x="1050" y="540" as="sourcePoint"/>
                        <mxPoint x="1100" y="490" as="targetPoint"/>
                        <Array as="points">
                            <mxPoint x="1250" y="440"/>
                            <mxPoint x="1250" y="240"/>
                        </Array>
                    </mxGeometry>
                </mxCell>
                <mxCell id="S4onKymIJfaPcPy270_9-92" value="NON" style="edgeLabel;html=1;align=center;verticalAlign=middle;resizable=0;points=[];" parent="S4onKymIJfaPcPy270_9-91" vertex="1" connectable="0">
                    <mxGeometry x="-0.6848" y="-1" relative="1" as="geometry">
                        <mxPoint x="-42" y="-11" as="offset"/>
                    </mxGeometry>
                </mxCell>
                <mxCell id="S4onKymIJfaPcPy270_9-108" style="edgeStyle=orthogonalEdgeStyle;rounded=0;orthogonalLoop=1;jettySize=auto;html=1;exitX=0.25;exitY=1;exitDx=0;exitDy=0;entryX=0.5;entryY=0;entryDx=0;entryDy=0;endArrow=classic;endFill=1;" parent="1" source="S4onKymIJfaPcPy270_9-97" target="S4onKymIJfaPcPy270_9-100" edge="1">
                    <mxGeometry relative="1" as="geometry"/>
                </mxCell>
                <mxCell id="S4onKymIJfaPcPy270_9-109" style="edgeStyle=orthogonalEdgeStyle;rounded=0;orthogonalLoop=1;jettySize=auto;html=1;exitX=0.5;exitY=1;exitDx=0;exitDy=0;entryX=0.5;entryY=0;entryDx=0;entryDy=0;endArrow=classic;endFill=1;" parent="1" source="S4onKymIJfaPcPy270_9-97" target="S4onKymIJfaPcPy270_9-101" edge="1">
                    <mxGeometry relative="1" as="geometry">
                        <Array as="points">
                            <mxPoint x="-323" y="780"/>
                            <mxPoint x="-280" y="780"/>
                        </Array>
                    </mxGeometry>
                </mxCell>
                <mxCell id="S4onKymIJfaPcPy270_9-110" style="edgeStyle=orthogonalEdgeStyle;rounded=0;orthogonalLoop=1;jettySize=auto;html=1;exitX=1;exitY=0.5;exitDx=0;exitDy=0;entryX=0.5;entryY=0;entryDx=0;entryDy=0;endArrow=classic;endFill=1;" parent="1" source="S4onKymIJfaPcPy270_9-97" target="S4onKymIJfaPcPy270_9-103" edge="1">
                    <mxGeometry relative="1" as="geometry"/>
                </mxCell>
                <mxCell id="S4onKymIJfaPcPy270_9-113" style="edgeStyle=orthogonalEdgeStyle;rounded=0;orthogonalLoop=1;jettySize=auto;html=1;exitX=0.75;exitY=1;exitDx=0;exitDy=0;entryX=0.5;entryY=0;entryDx=0;entryDy=0;endArrow=classic;endFill=1;" parent="1" source="S4onKymIJfaPcPy270_9-97" target="S4onKymIJfaPcPy270_9-111" edge="1">
                    <mxGeometry relative="1" as="geometry"/>
                </mxCell>
                <mxCell id="S4onKymIJfaPcPy270_9-97" value="Display: Choose option&lt;br&gt;(Read manuel):&amp;nbsp;" style="rounded=0;whiteSpace=wrap;html=1;fillColor=#FFFFFF;" parent="1" vertex="1">
                    <mxGeometry x="-413" y="690" width="180" height="60" as="geometry"/>
                </mxCell>
                <mxCell id="S4onKymIJfaPcPy270_9-98" value="" style="endArrow=classic;html=1;exitX=0;exitY=0.5;exitDx=0;exitDy=0;entryX=0.5;entryY=0;entryDx=0;entryDy=0;" parent="1" source="g8ZC8sTTa8iymZE90E4W-5" target="S4onKymIJfaPcPy270_9-97" edge="1">
                    <mxGeometry width="50" height="50" relative="1" as="geometry">
                        <mxPoint x="70" y="790" as="sourcePoint"/>
                        <mxPoint x="120" y="740" as="targetPoint"/>
                        <Array as="points">
                            <mxPoint x="-323" y="430"/>
                        </Array>
                    </mxGeometry>
                </mxCell>
                <mxCell id="S4onKymIJfaPcPy270_9-122" value="NON" style="edgeLabel;html=1;align=center;verticalAlign=middle;resizable=0;points=[];" parent="S4onKymIJfaPcPy270_9-98" vertex="1" connectable="0">
                    <mxGeometry x="-0.4725" y="2" relative="1" as="geometry">
                        <mxPoint x="-19" y="-49" as="offset"/>
                    </mxGeometry>
                </mxCell>
                <mxCell id="S4onKymIJfaPcPy270_9-130" style="edgeStyle=orthogonalEdgeStyle;rounded=0;orthogonalLoop=1;jettySize=auto;html=1;exitX=0.5;exitY=1;exitDx=0;exitDy=0;entryX=0.5;entryY=0;entryDx=0;entryDy=0;endArrow=classic;endFill=1;" parent="1" source="S4onKymIJfaPcPy270_9-99" target="S4onKymIJfaPcPy270_9-115" edge="1">
                    <mxGeometry relative="1" as="geometry"/>
                </mxCell>
                <mxCell id="S4onKymIJfaPcPy270_9-99" value="2) &lt;br&gt;Display: Set Stop code:&amp;nbsp;&lt;br&gt;&lt;br&gt;(max 16char)" style="rounded=0;whiteSpace=wrap;html=1;fillColor=#FFFFFF;" parent="1" vertex="1">
                    <mxGeometry x="-620" y="800" width="120" height="100" as="geometry"/>
                </mxCell>
                <mxCell id="S4onKymIJfaPcPy270_9-131" style="edgeStyle=orthogonalEdgeStyle;rounded=0;orthogonalLoop=1;jettySize=auto;html=1;exitX=0.5;exitY=1;exitDx=0;exitDy=0;entryX=0.5;entryY=0;entryDx=0;entryDy=0;endArrow=classic;endFill=1;" parent="1" source="S4onKymIJfaPcPy270_9-100" target="S4onKymIJfaPcPy270_9-116" edge="1">
                    <mxGeometry relative="1" as="geometry"/>
                </mxCell>
                <mxCell id="S4onKymIJfaPcPy270_9-100" value="3) &lt;br&gt;Display : Max try&amp;nbsp;" style="rounded=0;whiteSpace=wrap;html=1;fillColor=#FFFFFF;" parent="1" vertex="1">
                    <mxGeometry x="-490" y="800" width="120" height="60" as="geometry"/>
                </mxCell>
                <mxCell id="S4onKymIJfaPcPy270_9-132" style="edgeStyle=orthogonalEdgeStyle;rounded=0;orthogonalLoop=1;jettySize=auto;html=1;exitX=0.5;exitY=1;exitDx=0;exitDy=0;entryX=0.5;entryY=0;entryDx=0;entryDy=0;endArrow=classic;endFill=1;" parent="1" source="S4onKymIJfaPcPy270_9-101" target="S4onKymIJfaPcPy270_9-117" edge="1">
                    <mxGeometry relative="1" as="geometry"/>
                </mxCell>
                <mxCell id="S4onKymIJfaPcPy270_9-101" value="4)&lt;br&gt;Display : Version" style="rounded=0;whiteSpace=wrap;html=1;fillColor=#FFFFFF;" parent="1" vertex="1">
                    <mxGeometry x="-340" y="800" width="120" height="60" as="geometry"/>
                </mxCell>
                <mxCell id="S4onKymIJfaPcPy270_9-129" style="edgeStyle=orthogonalEdgeStyle;rounded=0;orthogonalLoop=1;jettySize=auto;html=1;exitX=0.5;exitY=1;exitDx=0;exitDy=0;entryX=0.5;entryY=0;entryDx=0;entryDy=0;endArrow=classic;endFill=1;" parent="1" source="S4onKymIJfaPcPy270_9-102" target="S4onKymIJfaPcPy270_9-114" edge="1">
                    <mxGeometry relative="1" as="geometry"/>
                </mxCell>
                <mxCell id="S4onKymIJfaPcPy270_9-102" value="1)&amp;nbsp;&lt;br&gt;Display: Max Time&lt;br&gt;(in min)" style="rounded=0;whiteSpace=wrap;html=1;fillColor=#FFFFFF;" parent="1" vertex="1">
                    <mxGeometry x="-750" y="800" width="120" height="60" as="geometry"/>
                </mxCell>
                <mxCell id="S4onKymIJfaPcPy270_9-105" style="edgeStyle=orthogonalEdgeStyle;rounded=0;orthogonalLoop=1;jettySize=auto;html=1;exitX=0.5;exitY=1;exitDx=0;exitDy=0;endArrow=classic;endFill=1;entryX=0.5;entryY=1;entryDx=0;entryDy=0;" parent="1" source="S4onKymIJfaPcPy270_9-103" target="g8ZC8sTTa8iymZE90E4W-5" edge="1">
                    <mxGeometry relative="1" as="geometry">
                        <mxPoint x="100" y="650" as="targetPoint"/>
                        <Array as="points">
                            <mxPoint x="-10" y="880"/>
                            <mxPoint x="80" y="880"/>
                            <mxPoint x="80" y="620"/>
                            <mxPoint x="-250" y="620"/>
                        </Array>
                    </mxGeometry>
                </mxCell>
                <mxCell id="S4onKymIJfaPcPy270_9-103" value="6) Undo" style="rounded=0;whiteSpace=wrap;html=1;fillColor=#FFFFFF;" parent="1" vertex="1">
                    <mxGeometry x="-70" y="800" width="120" height="60" as="geometry"/>
                </mxCell>
                <mxCell id="S4onKymIJfaPcPy270_9-106" value="" style="endArrow=classic;html=1;exitX=0;exitY=0.5;exitDx=0;exitDy=0;entryX=0.5;entryY=0;entryDx=0;entryDy=0;" parent="1" source="S4onKymIJfaPcPy270_9-97" target="S4onKymIJfaPcPy270_9-102" edge="1">
                    <mxGeometry width="50" height="50" relative="1" as="geometry">
                        <mxPoint x="-320" y="740" as="sourcePoint"/>
                        <mxPoint x="-270" y="690" as="targetPoint"/>
                        <Array as="points">
                            <mxPoint x="-690" y="720"/>
                        </Array>
                    </mxGeometry>
                </mxCell>
                <mxCell id="S4onKymIJfaPcPy270_9-107" value="" style="endArrow=classic;html=1;exitX=0;exitY=0.75;exitDx=0;exitDy=0;entryX=0.5;entryY=0;entryDx=0;entryDy=0;" parent="1" source="S4onKymIJfaPcPy270_9-97" target="S4onKymIJfaPcPy270_9-99" edge="1">
                    <mxGeometry width="50" height="50" relative="1" as="geometry">
                        <mxPoint x="-320" y="740" as="sourcePoint"/>
                        <mxPoint x="-270" y="690" as="targetPoint"/>
                        <Array as="points">
                            <mxPoint x="-560" y="735"/>
                        </Array>
                    </mxGeometry>
                </mxCell>
                <mxCell id="S4onKymIJfaPcPy270_9-111" value="5)&lt;br&gt;Display : Brightness&lt;br&gt;1:ON 2:OFF" style="rounded=0;whiteSpace=wrap;html=1;fillColor=#FFFFFF;" parent="1" vertex="1">
                    <mxGeometry x="-200" y="800" width="120" height="60" as="geometry"/>
                </mxCell>
                <mxCell id="S4onKymIJfaPcPy270_9-114" value="set ${ restant_time }" style="rounded=0;whiteSpace=wrap;html=1;fillColor=#FFFFFF;" parent="1" vertex="1">
                    <mxGeometry x="-760" y="970" width="120" height="60" as="geometry"/>
                </mxCell>
                <mxCell id="S4onKymIJfaPcPy270_9-115" value="set ${ code }" style="rounded=0;whiteSpace=wrap;html=1;fillColor=#FFFFFF;" parent="1" vertex="1">
                    <mxGeometry x="-620" y="970" width="120" height="60" as="geometry"/>
                </mxCell>
                <mxCell id="S4onKymIJfaPcPy270_9-116" value="set ${ maxTryCode }" style="rounded=0;whiteSpace=wrap;html=1;fillColor=#FFFFFF;" parent="1" vertex="1">
                    <mxGeometry x="-490" y="970" width="120" height="60" as="geometry"/>
                </mxCell>
                <mxCell id="S4onKymIJfaPcPy270_9-117" value="Read ${version}" style="rounded=0;whiteSpace=wrap;html=1;fillColor=#FFFFFF;" parent="1" vertex="1">
                    <mxGeometry x="-350" y="970" width="120" height="60" as="geometry"/>
                </mxCell>
                <mxCell id="MSjgwHwJJWcY53IDxr4m-3" style="edgeStyle=orthogonalEdgeStyle;rounded=0;orthogonalLoop=1;jettySize=auto;html=1;exitX=0.5;exitY=1;exitDx=0;exitDy=0;" parent="1" source="S4onKymIJfaPcPy270_9-118" target="g8ZC8sTTa8iymZE90E4W-5" edge="1">
                    <mxGeometry relative="1" as="geometry"/>
                </mxCell>
                <mxCell id="S4onKymIJfaPcPy270_9-118" value="Launch Core 0" style="rounded=0;whiteSpace=wrap;html=1;fillColor=#FFFFFF;" parent="1" vertex="1">
                    <mxGeometry x="-310" y="260" width="120" height="60" as="geometry"/>
                </mxCell>
                <mxCell id="S4onKymIJfaPcPy270_9-137" style="edgeStyle=orthogonalEdgeStyle;rounded=0;orthogonalLoop=1;jettySize=auto;html=1;exitX=0.5;exitY=1;exitDx=0;exitDy=0;entryX=0.294;entryY=0.017;entryDx=0;entryDy=0;entryPerimeter=0;endArrow=classic;endFill=1;" parent="1" source="S4onKymIJfaPcPy270_9-123" target="S4onKymIJfaPcPy270_9-97" edge="1">
                    <mxGeometry relative="1" as="geometry">
                        <Array as="points">
                            <mxPoint x="-490" y="1270"/>
                            <mxPoint x="-810" y="1270"/>
                            <mxPoint x="-810" y="670"/>
                            <mxPoint x="-360" y="670"/>
                        </Array>
                    </mxGeometry>
                </mxCell>
                <mxCell id="S4onKymIJfaPcPy270_9-123" value="set properties" style="rounded=0;whiteSpace=wrap;html=1;fillColor=#FFFFFF;" parent="1" vertex="1">
                    <mxGeometry x="-550" y="1190" width="120" height="60" as="geometry"/>
                </mxCell>
                <mxCell id="S4onKymIJfaPcPy270_9-124" value="" style="endArrow=classic;html=1;exitX=0.5;exitY=1;exitDx=0;exitDy=0;entryX=0.5;entryY=0;entryDx=0;entryDy=0;" parent="1" source="S4onKymIJfaPcPy270_9-114" target="S4onKymIJfaPcPy270_9-123" edge="1">
                    <mxGeometry width="50" height="50" relative="1" as="geometry">
                        <mxPoint x="-220" y="990" as="sourcePoint"/>
                        <mxPoint x="-170" y="940" as="targetPoint"/>
                        <Array as="points">
                            <mxPoint x="-700" y="1090"/>
                            <mxPoint x="-490" y="1090"/>
                        </Array>
                    </mxGeometry>
                </mxCell>
                <mxCell id="S4onKymIJfaPcPy270_9-126" value="" style="endArrow=none;html=1;exitX=0.5;exitY=1;exitDx=0;exitDy=0;" parent="1" source="S4onKymIJfaPcPy270_9-115" edge="1">
                    <mxGeometry width="50" height="50" relative="1" as="geometry">
                        <mxPoint x="-220" y="990" as="sourcePoint"/>
                        <mxPoint x="-560" y="1090" as="targetPoint"/>
                    </mxGeometry>
                </mxCell>
                <mxCell id="S4onKymIJfaPcPy270_9-127" value="" style="endArrow=none;html=1;exitX=0.5;exitY=1;exitDx=0;exitDy=0;" parent="1" source="S4onKymIJfaPcPy270_9-116" edge="1">
                    <mxGeometry width="50" height="50" relative="1" as="geometry">
                        <mxPoint x="-220" y="990" as="sourcePoint"/>
                        <mxPoint x="-490" y="1120" as="targetPoint"/>
                        <Array as="points">
                            <mxPoint x="-430" y="1120"/>
                        </Array>
                    </mxGeometry>
                </mxCell>
                <mxCell id="S4onKymIJfaPcPy270_9-128" value="" style="endArrow=none;html=1;exitX=0.5;exitY=1;exitDx=0;exitDy=0;" parent="1" source="S4onKymIJfaPcPy270_9-117" edge="1">
                    <mxGeometry width="50" height="50" relative="1" as="geometry">
                        <mxPoint x="-220" y="990" as="sourcePoint"/>
                        <mxPoint x="-430" y="1090" as="targetPoint"/>
                        <Array as="points">
                            <mxPoint x="-290" y="1090"/>
                        </Array>
                    </mxGeometry>
                </mxCell>
                <mxCell id="S4onKymIJfaPcPy270_9-136" style="edgeStyle=orthogonalEdgeStyle;rounded=0;orthogonalLoop=1;jettySize=auto;html=1;exitX=0.5;exitY=1;exitDx=0;exitDy=0;endArrow=none;endFill=0;" parent="1" source="S4onKymIJfaPcPy270_9-134" edge="1">
                    <mxGeometry relative="1" as="geometry">
                        <mxPoint x="-580" y="1270" as="targetPoint"/>
                        <Array as="points">
                            <mxPoint x="-140" y="1320"/>
                            <mxPoint x="-580" y="1320"/>
                        </Array>
                    </mxGeometry>
                </mxCell>
                <mxCell id="S4onKymIJfaPcPy270_9-134" value="set brightness" style="rounded=0;whiteSpace=wrap;html=1;fillColor=#FFFFFF;" parent="1" vertex="1">
                    <mxGeometry x="-200" y="970" width="120" height="60" as="geometry"/>
                </mxCell>
                <mxCell id="S4onKymIJfaPcPy270_9-135" value="" style="endArrow=classic;html=1;exitX=0.5;exitY=1;exitDx=0;exitDy=0;entryX=0.5;entryY=0;entryDx=0;entryDy=0;" parent="1" source="S4onKymIJfaPcPy270_9-111" target="S4onKymIJfaPcPy270_9-134" edge="1">
                    <mxGeometry width="50" height="50" relative="1" as="geometry">
                        <mxPoint x="-20" y="990" as="sourcePoint"/>
                        <mxPoint x="30" y="940" as="targetPoint"/>
                    </mxGeometry>
                </mxCell>
            </root>
        </mxGraphModel>
    </diagram>
</mxfile>